<?xml version="1.0" standalone="no"?>
<!DOCTYPE svg PUBLIC "-//W3C//DTD SVG 20010904//EN"
 "http://www.w3.org/TR/2001/REC-SVG-20010904/DTD/svg10.dtd">
<svg version="1.0" xmlns="http://www.w3.org/2000/svg"
 width="2000.000000pt" height="2000.000000pt" viewBox="0 0 2000.000000 2000.000000"
 preserveAspectRatio="xMidYMid meet">
<metadata>
Created by potrace 1.14, written by Peter Selinger 2001-2017
</metadata>
<g transform="translate(0.000000,2000.000000) scale(0.100000,-0.100000)"
fill="#000000" stroke="none">
<path d="M0 10000 l0 -10000 10000 0 10000 0 0 10000 0 10000 -10000 0 -10000
0 0 -10000z m6695 3950 c292 -11 293 -11 339 -73 18 -25 20 -50 27 -414 19
-921 29 -1698 39 -2888 12 -1506 19 -1660 86 -1914 48 -184 111 -278 222 -333
66 -33 68 -33 212 -33 144 0 146 0 212 33 76 37 113 78 158 174 59 125 92 308
109 608 6 96 15 810 21 1585 12 1701 37 3225 52 3240 28 29 1591 41 2187 17
338 -13 351 -16 383 -82 18 -37 21 -145 49 -1670 17 -884 17 -2632 1 -2840
-64 -822 -195 -1376 -447 -1885 -148 -301 -290 -500 -512 -716 -394 -385 -898
-610 -1566 -700 -381 -50 -1010 -29 -1496 52 -670 111 -1140 332 -1507 710
-517 533 -782 1369 -844 2664 -22 465 -1 2965 36 4232 l7 222 71 6 c287 25
1585 28 2161 5z m8280 10 c429 -15 478 -20 516 -56 16 -15 34 -44 39 -64 5
-19 14 -192 20 -385 6 -192 16 -523 22 -735 15 -512 15 -2131 0 -2570 -25
-708 -57 -1379 -67 -1389 -17 -17 -355 -25 -1050 -25 -855 -1 -1132 9 -1188
41 -64 38 -64 40 -81 573 -50 1531 -46 3192 10 4447 l7 142 71 6 c267 23 1205
31 1701 15z m-80 -5771 c242 -5 454 -14 471 -20 17 -5 44 -23 60 -40 l29 -30
7 -197 c8 -264 10 -1343 1 -1559 -6 -163 -7 -172 -27 -177 -12 -4 -226 -9
-476 -12 -437 -6 -787 1 -1355 27 -262 12 -289 18 -328 73 -22 31 -22 38 -29
466 -9 557 1 1450 16 1456 20 7 552 21 876 22 173 1 513 -3 755 -9z"/>
</g>
</svg>
